<?xml version="1.0" encoding="UTF-8"?>
<svg xmlns="http://www.w3.org/2000/svg" viewBox="0 0 556 200" preserveAspectRatio="xMidYMid meet">
  <g transform="translate(0,200) scale(0.1,-0.1)" fill="#ffffff" stroke="none">
    <path d="M1164 1677 c-2 -7 -3 -96 -2 -197 l3 -185 193 -3 192 -2 0 -285 0 -285 -285 0 -285 0 0 95 0 95 -195 0 -195 0 0 -221 c0 -209 1 -223 22 -260 12 -21 39 -51 61 -66 l40 -28 526 -3 c357 -2 538 0 563 8 50 14 97 56 119 105 17 37 19 80 19 643 l0 602 -385 0 c-304 0 -387 -3 -391 -13z"/>
    <path d="M2050 1395 l0 -295 195 0 195 0 0 95 0 95 137 0 138 0 -333 -333 -332 -332 0 -148 0 -147 675 0 675 0 0 195 0 195 -332 0 -333 0 333 333 332 332 0 153 0 152 -675 0 -675 0 0 -295z"/>
    <path d="M3510 1010 l0 -680 675 0 675 0 0 147 0 148 -332 332 -333 333 138 0 137 0 0 -95 0 -95 195 0 195 0 0 295 0 295 -675 0 -675 0 0 -680z m660 -287 c0 -2 -61 -3 -135 -3 l-135 0 0 137 0 138 135 -135 c74 -74 135 -136 135 -137z"/>
  </g>
</svg>
